<?xml version="1.0" encoding="UTF-8" ?>
<svg version="1.1" width="10" height="9" xmlns="http://www.w3.org/2000/svg" shape-rendering="crispEdges">
<rect x="1" y="0" width="1" height="1" fill="#FFFFFF" />
<rect x="2" y="0" width="1" height="1" fill="#FFFFFF" />
<rect x="3" y="0" width="1" height="1" fill="#FFFFFF" />
<rect x="4" y="0" width="1" height="1" fill="#FFFFFF" opacity="0.388235" />
<rect x="5" y="0" width="1" height="1" fill="#FFFFFF" opacity="0.388235" />
<rect x="6" y="0" width="1" height="1" fill="#FFFFFF" />
<rect x="7" y="0" width="1" height="1" fill="#FFFFFF" />
<rect x="8" y="0" width="1" height="1" fill="#FFFFFF" />
<rect x="0" y="1" width="1" height="1" fill="#FFFFFF" />
<rect x="9" y="1" width="1" height="1" fill="#FFFFFF" />
<rect x="0" y="2" width="1" height="1" fill="#FFFFFF" opacity="0.388235" />
<rect x="9" y="2" width="1" height="1" fill="#FFFFFF" />
<rect x="0" y="3" width="1" height="1" fill="#FFFFFF" opacity="0.388235" />
<rect x="9" y="3" width="1" height="1" fill="#FFFFFF" />
<rect x="0" y="4" width="1" height="1" fill="#FFFFFF" opacity="0.388235" />
<rect x="9" y="4" width="1" height="1" fill="#FFFFFF" opacity="0.388235" />
<rect x="0" y="5" width="1" height="1" fill="#FFFFFF" opacity="0.388235" />
<rect x="9" y="5" width="1" height="1" fill="#FFFFFF" opacity="0.388235" />
<rect x="0" y="6" width="1" height="1" fill="#FFFFFF" opacity="0.388235" />
<rect x="9" y="6" width="1" height="1" fill="#FFFFFF" />
<rect x="0" y="7" width="1" height="1" fill="#FFFFFF" />
<rect x="9" y="7" width="1" height="1" fill="#FFFFFF" />
<rect x="0" y="8" width="1" height="1" fill="#000000" opacity="0.196078" />
<rect x="1" y="8" width="1" height="1" fill="#FFFFFF" />
<rect x="2" y="8" width="1" height="1" fill="#FFFFFF" />
<rect x="3" y="8" width="1" height="1" fill="#FFFFFF" opacity="0.388235" />
<rect x="4" y="8" width="1" height="1" fill="#FFFFFF" opacity="0.388235" />
<rect x="5" y="8" width="1" height="1" fill="#FFFFFF" opacity="0.388235" />
<rect x="6" y="8" width="1" height="1" fill="#FFFFFF" opacity="0.388235" />
<rect x="7" y="8" width="1" height="1" fill="#FFFFFF" />
<rect x="8" y="8" width="1" height="1" fill="#FFFFFF" />
<rect x="9" y="8" width="1" height="1" fill="#000000" opacity="0.196078" />
</svg>